<svg xmlns="http://www.w3.org/2000/svg" viewBox="0 0 1376 768" role="img" aria-labelledby="title desc">
<title id="title">Compaction and persistent memory for long-running AI agents</title><desc id="desc">A long conversation is compressed while durable notes remain outside the context window.</desc>
<defs><marker id="arr" viewBox="0 0 10 10" refX="9" refY="5" markerWidth="7" markerHeight="7" orient="auto"><path d="M0 0L10 5L0 10Z" fill="#2b7775"/></marker><style>.ink{stroke:#173b50;stroke-width:5;stroke-linecap:round;stroke-linejoin:round}.flow{stroke:#2b7775;stroke-width:5;fill:none;stroke-linecap:round;marker-end:url(#arr)}.t{font-family:Arial,sans-serif;font-weight:700;fill:#173b50}.m{font-family:Arial,sans-serif;fill:#49656b}</style></defs>
<rect width="1376" height="768" fill="#f7f0df"/><rect x="16" y="16" width="1344" height="736" rx="28" fill="none" stroke="#d7c7a9" stroke-width="3"/><g opacity=".13" stroke="#78908d" stroke-width="2"><path d="M70 145H1300M70 290H1300M70 435H1300M70 580H1300"/><path d="M170 70V700M380 70V700M590 70V700M800 70V700M1010 70V700M1220 70V700"/></g>

<g transform="translate(94 195)"><rect width="280" height="370" rx="20" fill="#fffaf0" class="ink"/><g transform="translate(32 90)"><rect width="215" height="45" rx="9" fill="#7be0d4" class="ink"/><path d="M20 22h150" stroke="#173b50" stroke-width="6" stroke-linecap="round"/></g><g transform="translate(32 151)"><rect width="215" height="45" rx="9" fill="#f1c85b" class="ink"/><path d="M20 22h116" stroke="#173b50" stroke-width="6" stroke-linecap="round"/></g><g transform="translate(32 212)"><rect width="215" height="45" rx="9" fill="#f2b7a6" class="ink"/><path d="M20 22h178" stroke="#173b50" stroke-width="6" stroke-linecap="round"/></g><g transform="translate(32 273)"><rect width="215" height="45" rx="9" fill="#b4ddd5" class="ink"/><path d="M20 22h95" stroke="#173b50" stroke-width="6" stroke-linecap="round"/></g><path d="M22 340h230" stroke="#d5a544" stroke-width="6" stroke-dasharray="9 12"/></g>
<path d="M410 380H527" class="flow"/>
<g transform="translate(545 242)"><path d="M0 52Q103 -28 206 52L179 270Q103 319 27 270Z" fill="#77d8cc" class="ink"/><path d="M49 119h108M49 155h72M49 191h122" stroke="#173b50" stroke-width="7" stroke-linecap="round"/><circle cx="103" cy="60" r="22" fill="#f1c85b" class="ink"/><path d="M92 60h22M103 49v22" class="ink"/></g>
<path d="M788 380H866" class="flow"/>
<g transform="translate(885 185)"><path d="M0 21h263v361H0z" fill="#f1c85b" class="ink"/><path d="M22 21L130 76 241 21" fill="#fffaf0" class="ink"/><path d="M45 145h170M45 190h128M45 235h151M45 280h100" stroke="#173b50" stroke-width="7" stroke-linecap="round"/><path d="M263 50l58-38v361l-58 38" fill="#e1b348" class="ink"/></g>
<path d="M1162 590C1060 657 951 643 847 579" class="flow"/>
<g transform="translate(554 611)"><rect width="236" height="70" rx="20" fill="#173b50" class="ink"/><circle cx="40" cy="35" r="14" fill="#7be0d4"/><path d="M34 35l6 6 12-16" fill="none" stroke="#173b50" stroke-width="4"/></g>
</svg>
